<svg xmlns="http://www.w3.org/2000/svg" viewBox="0 0 256 256" role="img" aria-label="Avatar 5">
  <defs>
    <linearGradient id="bg5" x1="0" x2="1" y1="0" y2="1">
      <stop offset="0%" stop-color="#efe5f8"/>
      <stop offset="100%" stop-color="#cfc3dd"/>
    </linearGradient>
    <linearGradient id="shirt5" x1="0" x2="0" y1="0" y2="1">
      <stop offset="0%" stop-color="#4a3848"/>
      <stop offset="100%" stop-color="#2d232d"/>
    </linearGradient>
  </defs>
  <rect width="256" height="256" fill="url(#bg5)"/>
  <circle cx="128" cy="100" r="48" fill="#e4b495"/>
  <path d="M80 98c0-35 20-56 48-56s48 21 48 56c-9-13-20-21-48-21s-39 8-48 21z" fill="#2c1f1a"/>
  <rect x="116" y="140" width="24" height="26" rx="10" fill="#d29f7f"/>
  <path d="M42 230c10-34 39-54 86-54s76 20 86 54v26H42z" fill="url(#shirt5)"/>
  <circle cx="111" cy="106" r="5" fill="#2e343c"/>
  <circle cx="145" cy="106" r="5" fill="#2e343c"/>
  <path d="M111 126c8 8 26 8 34 0" stroke="#9c6d53" stroke-width="4" fill="none" stroke-linecap="round"/>
</svg>
