<svg xmlns="http://www.w3.org/2000/svg" viewBox="0 0 256 256" role="img" aria-label="Avatar 2">
  <defs>
    <linearGradient id="bg2" x1="0" x2="1" y1="0" y2="1">
      <stop offset="0%" stop-color="#dde7ff"/>
      <stop offset="100%" stop-color="#b9c5dc"/>
    </linearGradient>
    <linearGradient id="shirt2" x1="0" x2="0" y1="0" y2="1">
      <stop offset="0%" stop-color="#334b63"/>
      <stop offset="100%" stop-color="#202e3c"/>
    </linearGradient>
  </defs>
  <rect width="256" height="256" fill="url(#bg2)"/>
  <circle cx="128" cy="100" r="48" fill="#e8bf9e"/>
  <path d="M80 98c0-35 20-56 48-56s48 21 48 56c-9-13-20-21-48-21s-39 8-48 21z" fill="#3a2a22"/>
  <rect x="93" y="96" width="21" height="14" rx="6" fill="none" stroke="#2f3540" stroke-width="3"/>
  <rect x="142" y="96" width="21" height="14" rx="6" fill="none" stroke="#2f3540" stroke-width="3"/>
  <rect x="114" y="101" width="28" height="3" fill="#2f3540"/>
  <rect x="116" y="140" width="24" height="26" rx="10" fill="#d8aa88"/>
  <path d="M42 230c10-34 39-54 86-54s76 20 86 54v26H42z" fill="url(#shirt2)"/>
  <circle cx="111" cy="106" r="4" fill="#2e343c"/>
  <circle cx="145" cy="106" r="4" fill="#2e343c"/>
  <path d="M112 126c7 8 25 8 32 0" stroke="#9b6b52" stroke-width="4" fill="none" stroke-linecap="round"/>
</svg>
