<svg xmlns="http://www.w3.org/2000/svg" viewBox="0 0 256 256" role="img" aria-label="Avatar 3">
  <defs>
    <linearGradient id="bg3" x1="0" x2="1" y1="0" y2="1">
      <stop offset="0%" stop-color="#e6f5ef"/>
      <stop offset="100%" stop-color="#c5d8d3"/>
    </linearGradient>
    <linearGradient id="shirt3" x1="0" x2="0" y1="0" y2="1">
      <stop offset="0%" stop-color="#3d4050"/>
      <stop offset="100%" stop-color="#262933"/>
    </linearGradient>
  </defs>
  <rect width="256" height="256" fill="url(#bg3)"/>
  <circle cx="128" cy="100" r="48" fill="#dcae89"/>
  <path d="M80 98c0-35 20-56 48-56s48 21 48 56c-9-13-20-21-48-21s-39 8-48 21z" fill="#1e2430"/>
  <rect x="116" y="140" width="24" height="26" rx="10" fill="#d19f79"/>
  <path d="M92 146c10 16 22 23 36 23s26-7 36-23" fill="#2b2523"/>
  <path d="M42 230c10-34 39-54 86-54s76 20 86 54v26H42z" fill="url(#shirt3)"/>
  <circle cx="111" cy="106" r="5" fill="#2e343c"/>
  <circle cx="145" cy="106" r="5" fill="#2e343c"/>
  <path d="M111 126c8 8 26 8 34 0" stroke="#9c6d53" stroke-width="4" fill="none" stroke-linecap="round"/>
</svg>
