<svg xmlns="http://www.w3.org/2000/svg" viewBox="0 0 256 256" role="img" aria-label="Avatar 4">
  <defs>
    <linearGradient id="bg4" x1="0" x2="1" y1="0" y2="1">
      <stop offset="0%" stop-color="#f4ebe2"/>
      <stop offset="100%" stop-color="#d8cec4"/>
    </linearGradient>
    <linearGradient id="shirt4" x1="0" x2="0" y1="0" y2="1">
      <stop offset="0%" stop-color="#374038"/>
      <stop offset="100%" stop-color="#222a22"/>
    </linearGradient>
  </defs>
  <rect width="256" height="256" fill="url(#bg4)"/>
  <circle cx="128" cy="100" r="48" fill="#f0c9ad"/>
  <path d="M80 98c0-35 20-56 48-56s48 21 48 56c-9-13-20-21-48-21s-39 8-48 21z" fill="#2f2f2f"/>
  <rect x="92" y="96" width="22" height="14" rx="6" fill="none" stroke="#2f3540" stroke-width="3"/>
  <rect x="142" y="96" width="22" height="14" rx="6" fill="none" stroke="#2f3540" stroke-width="3"/>
  <rect x="114" y="101" width="28" height="3" fill="#2f3540"/>
  <rect x="116" y="140" width="24" height="26" rx="10" fill="#e4b99c"/>
  <path d="M42 230c10-34 39-54 86-54s76 20 86 54v26H42z" fill="url(#shirt4)"/>
  <circle cx="111" cy="106" r="4" fill="#2e343c"/>
  <circle cx="145" cy="106" r="4" fill="#2e343c"/>
  <path d="M112 126c7 8 25 8 32 0" stroke="#ad7a60" stroke-width="4" fill="none" stroke-linecap="round"/>
</svg>
